<?xml version="1.0" encoding="UTF-8" standalone="no"?>
<!DOCTYPE svg PUBLIC "-//W3C//DTD SVG 20010904//EN"
              "http://www.w3.org/TR/2001/REC-SVG-20010904/DTD/svg10.dtd">

<svg xmlns="http://www.w3.org/2000/svg"
     width="11.1111in" height="6.73611in"
     viewBox="0 0 800 485">
  <path fill="#696969"
        d="M 154.00,0.09
           C 154.00,0.09 264.00,0.09 264.00,0.09
             264.00,0.09 600.00,0.09 600.00,0.09
             600.00,0.09 696.00,0.09 696.00,0.09
             725.51,0.05 746.95,21.49 747.00,51.00
             747.00,51.00 747.00,400.00 747.00,400.00
             746.86,428.98 724.67,449.96 696.00,450.00
             696.00,450.00 202.00,450.00 202.00,450.00
             202.00,450.00 105.00,450.00 105.00,450.00
             75.49,449.95 54.05,428.51 54.00,399.00
             54.00,399.00 54.00,98.00 54.00,98.00
             54.00,98.00 54.00,66.00 54.00,66.00
             54.00,66.00 54.00,51.00 54.00,51.00
             54.03,31.91 62.93,15.19 80.00,5.90
             85.66,2.82 90.76,1.59 97.00,0.09
             97.00,0.09 154.00,0.09 154.00,0.09 Z" />
  <path fill="#ffffff"
        d="M 0.00,90.00
           C 0.01,81.15 1.55,71.06 5.32,63.00
             14.62,43.13 34.16,35.03 55.00,35.00
             55.00,35.00 628.00,35.00 628.00,35.00
             628.00,35.00 747.00,35.00 747.00,35.00
             780.30,35.39 799.95,57.31 800.00,90.00
             800.00,90.00 800.00,250.00 800.00,250.00
             800.00,250.00 665.00,250.00 665.00,250.00
             662.64,250.00 658.81,250.42 657.16,248.43
             657.16,248.43 653.14,235.00 653.14,235.00
             650.26,226.82 645.69,218.80 640.33,212.00
             627.82,196.12 605.56,183.24 585.00,183.00
             585.00,183.00 575.00,183.00 575.00,183.00
             551.96,183.27 528.72,198.40 516.03,217.00
             512.06,222.82 508.27,230.26 506.20,237.00
             505.39,239.65 504.13,247.53 502.27,249.01
             500.69,250.26 496.97,250.00 495.00,250.00
             495.00,250.00 305.00,250.00 305.00,250.00
             302.64,250.00 298.81,250.42 297.16,248.43
             297.16,248.43 293.14,235.00 293.14,235.00
             290.26,226.82 285.69,218.80 280.33,212.00
             267.82,196.12 245.56,183.24 225.00,183.00
             225.00,183.00 215.00,183.00 215.00,183.00
             191.96,183.27 168.72,198.40 156.03,217.00
             152.06,222.82 148.27,230.26 146.20,237.00
             145.39,239.65 144.13,247.53 142.27,249.01
             140.69,250.26 136.97,250.00 135.00,250.00
             135.00,250.00 0.00,250.00 0.00,250.00
             0.00,250.00 0.00,90.00 0.00,90.00 Z
           M 135.00,270.00
           C 137.36,270.00 141.19,269.58 142.84,271.57
             142.84,271.57 146.86,285.00 146.86,285.00
             149.74,293.18 154.31,301.20 159.67,308.00
             172.18,323.88 194.44,336.76 215.00,337.00
             215.00,337.00 225.00,337.00 225.00,337.00
             248.04,336.73 271.28,321.60 283.97,303.00
             287.94,297.18 291.73,289.74 293.80,283.00
             294.61,280.35 295.87,272.47 297.73,270.99
             299.31,269.74 303.03,270.00 305.00,270.00
             305.00,270.00 495.00,270.00 495.00,270.00
             497.36,270.00 501.19,269.58 502.84,271.57
             502.84,271.57 506.86,285.00 506.86,285.00
             509.74,293.18 514.31,301.20 519.67,308.00
             532.18,323.88 554.44,336.76 575.00,337.00
             575.00,337.00 585.00,337.00 585.00,337.00
             608.04,336.73 631.28,321.60 643.97,303.00
             647.94,297.18 651.73,289.74 653.80,283.00
             654.61,280.35 655.87,272.47 657.73,270.99
             659.31,269.74 663.03,270.00 665.00,270.00
             665.00,270.00 800.00,270.00 800.00,270.00
             800.00,270.00 800.00,430.00 800.00,430.00
             799.95,463.43 779.78,484.84 746.00,485.00
             746.00,485.00 518.00,485.00 518.00,485.00
             515.35,484.99 512.43,485.19 510.00,483.98
             506.44,482.20 490.05,465.05 486.00,461.00
             486.00,461.00 444.00,419.00 444.00,419.00
             431.93,406.93 425.68,398.33 408.00,395.25
             404.75,394.68 401.30,393.95 398.00,394.18
             375.30,395.80 367.03,406.97 352.00,422.00
             352.00,422.00 314.00,460.00 314.00,460.00
             314.00,460.00 298.00,476.00 298.00,476.00
             295.76,478.24 291.68,482.64 289.00,483.98
             286.57,485.19 283.65,484.99 281.00,485.00
             281.00,485.00 55.00,485.00 55.00,485.00
             34.16,484.97 14.62,476.87 5.32,457.00
             1.55,448.94 0.01,438.85 0.00,430.00
             0.00,430.00 0.00,270.00 0.00,270.00
             0.00,270.00 135.00,270.00 135.00,270.00 Z" />
</svg>
